<svg xmlns="http://www.w3.org/2000/svg" xmlns:xlink="http://www.w3.org/1999/xlink" width="500" zoomAndPan="magnify" viewBox="0 0 375 374.999991" height="500" preserveAspectRatio="xMidYMid meet" version="1.0"><defs><clipPath id="50e82917c8"><path d="M 4.066406 4.066406 L 370.816406 4.066406 L 370.816406 370.816406 L 4.066406 370.816406 Z M 4.066406 4.066406 " clip-rule="nonzero"/></clipPath><clipPath id="d1fe57839d"><path d="M 187.5 4.066406 C 86.191406 4.066406 4.066406 86.191406 4.066406 187.5 C 4.066406 288.808594 86.191406 370.933594 187.5 370.933594 C 288.808594 370.933594 370.933594 288.808594 370.933594 187.5 C 370.933594 86.191406 288.808594 4.066406 187.5 4.066406 Z M 187.5 4.066406 " clip-rule="nonzero"/></clipPath><clipPath id="25d44bcde9"><path d="M 90.125 95 L 285 95 L 285 222 L 90.125 222 Z M 90.125 95 " clip-rule="nonzero"/></clipPath></defs><g clip-path="url(#50e82917c8)"><g clip-path="url(#d1fe57839d)"><path stroke-linecap="butt" transform="matrix(0.75, 0, 0, 0.75, 4.065693, 4.065689)" fill="none" stroke-linejoin="miter" d="M 244.579076 0.000956636 C 109.500951 0.000956636 0.000950636 109.500957 0.000950636 244.579082 C 0.000950636 379.657207 109.500951 489.157207 244.579076 489.157207 C 379.657201 489.157207 489.157201 379.657207 489.157201 244.579082 C 489.157201 109.500957 379.657201 0.000956636 244.579076 0.000956636 Z M 244.579076 0.000956636 " stroke="#ffffff" stroke-width="30" stroke-opacity="1" stroke-miterlimit="4"/></g></g><g clip-path="url(#25d44bcde9)"><path fill="#ffffff" d="M 265.464844 129.214844 L 151 129.214844 C 150.605469 129.214844 150.210938 129.253906 149.820312 129.332031 C 149.429688 129.410156 149.050781 129.523438 148.679688 129.675781 C 148.3125 129.828125 147.964844 130.015625 147.632812 130.238281 C 147.300781 130.457031 146.996094 130.710938 146.714844 130.992188 C 146.433594 131.273438 146.179688 131.578125 145.960938 131.910156 C 145.738281 132.242188 145.550781 132.589844 145.398438 132.957031 C 145.246094 133.328125 145.132812 133.707031 145.054688 134.097656 C 144.976562 134.488281 144.9375 134.882812 144.9375 135.28125 C 144.9375 135.675781 144.976562 136.070312 145.054688 136.460938 C 145.132812 136.851562 145.246094 137.230469 145.398438 137.601562 C 145.550781 137.96875 145.738281 138.316406 145.960938 138.648438 C 146.179688 138.980469 146.433594 139.285156 146.714844 139.566406 C 146.996094 139.847656 147.300781 140.101562 147.632812 140.320312 C 147.964844 140.542969 148.3125 140.730469 148.679688 140.882812 C 149.050781 141.035156 149.429688 141.148438 149.820312 141.226562 C 150.210938 141.304688 150.605469 141.34375 151 141.34375 L 265.464844 141.34375 C 265.742188 141.34375 266.023438 141.359375 266.300781 141.394531 C 266.578125 141.429688 266.851562 141.484375 267.121094 141.554688 C 267.390625 141.625 267.65625 141.710938 267.917969 141.816406 C 268.175781 141.917969 268.429688 142.039062 268.671875 142.175781 C 268.917969 142.3125 269.152344 142.464844 269.378906 142.628906 C 269.601562 142.796875 269.816406 142.976562 270.019531 143.167969 C 270.222656 143.363281 270.410156 143.566406 270.585938 143.785156 C 270.761719 144 270.921875 144.230469 271.070312 144.46875 C 271.21875 144.707031 271.347656 144.953125 271.464844 145.207031 C 271.578125 145.460938 271.679688 145.722656 271.761719 145.988281 C 271.84375 146.257812 271.910156 146.527344 271.957031 146.804688 C 272.003906 147.078125 272.035156 147.355469 272.046875 147.636719 C 272.058594 147.914062 272.054688 148.195312 272.03125 148.472656 C 272.007812 148.753906 271.964844 149.027344 271.90625 149.300781 C 271.847656 149.574219 271.773438 149.84375 271.679688 150.109375 C 271.589844 150.371094 271.480469 150.628906 271.355469 150.878906 C 264.421875 164.789062 254.527344 195.816406 249.585938 205.691406 C 249.3125 206.238281 248.96875 206.738281 248.554688 207.1875 C 248.144531 207.640625 247.675781 208.027344 247.15625 208.347656 C 246.636719 208.667969 246.082031 208.914062 245.496094 209.078125 C 244.90625 209.246094 244.304688 209.332031 243.695312 209.328125 L 159.429688 209.328125 C 158.769531 209.332031 158.121094 209.234375 157.492188 209.039062 C 156.859375 208.847656 156.269531 208.566406 155.722656 208.195312 C 155.175781 207.824219 154.695312 207.378906 154.28125 206.867188 C 153.867188 206.351562 153.539062 205.785156 153.296875 205.171875 C 153.296875 205.101562 134.339844 120.066406 134.339844 120.066406 C 134.148438 119.203125 133.921875 118.351562 133.660156 117.507812 C 133.394531 116.660156 133.097656 115.832031 132.765625 115.011719 C 132.429688 114.191406 132.0625 113.390625 131.660156 112.601562 C 131.257812 111.8125 130.824219 111.042969 130.359375 110.292969 C 129.890625 109.542969 129.394531 108.8125 128.867188 108.101562 C 128.335938 107.394531 127.78125 106.707031 127.191406 106.046875 C 126.605469 105.386719 125.992188 104.75 125.351562 104.140625 C 124.710938 103.527344 124.046875 102.949219 123.359375 102.394531 C 122.667969 101.839844 121.957031 101.316406 121.222656 100.824219 C 120.488281 100.328125 119.734375 99.867188 118.964844 99.4375 C 118.191406 99.007812 117.402344 98.613281 116.59375 98.25 C 115.789062 97.886719 114.96875 97.558594 114.132812 97.265625 C 113.300781 96.96875 112.453125 96.710938 111.597656 96.492188 C 110.742188 96.269531 109.878906 96.082031 109.007812 95.933594 C 108.136719 95.785156 107.257812 95.671875 106.378906 95.597656 C 105.496094 95.523438 104.613281 95.484375 103.730469 95.484375 L 96.195312 95.484375 C 95.792969 95.464844 95.390625 95.488281 94.992188 95.554688 C 94.59375 95.621094 94.207031 95.726562 93.828125 95.871094 C 93.453125 96.019531 93.09375 96.203125 92.753906 96.421875 C 92.414062 96.644531 92.105469 96.898438 91.816406 97.183594 C 91.53125 97.46875 91.277344 97.78125 91.058594 98.121094 C 90.839844 98.460938 90.65625 98.816406 90.507812 99.195312 C 90.363281 99.570312 90.257812 99.960938 90.195312 100.359375 C 90.128906 100.757812 90.105469 101.160156 90.125 101.5625 C 90.125 101.960938 90.167969 102.355469 90.246094 102.746094 C 90.324219 103.136719 90.4375 103.515625 90.589844 103.882812 C 90.742188 104.25 90.929688 104.597656 91.152344 104.929688 C 91.375 105.261719 91.625 105.566406 91.90625 105.847656 C 92.1875 106.128906 92.492188 106.378906 92.824219 106.601562 C 93.15625 106.824219 93.503906 107.007812 93.871094 107.164062 C 94.238281 107.316406 94.617188 107.429688 95.007812 107.507812 C 95.398438 107.585938 95.792969 107.625 96.191406 107.628906 L 103.730469 107.628906 C 104.816406 107.628906 105.894531 107.71875 106.964844 107.898438 C 108.03125 108.082031 109.082031 108.351562 110.105469 108.710938 C 111.128906 109.070312 112.113281 109.515625 113.0625 110.042969 C 114.011719 110.566406 114.910156 111.171875 115.757812 111.847656 C 116.605469 112.527344 117.390625 113.273438 118.109375 114.085938 C 118.832031 114.894531 119.480469 115.761719 120.054688 116.683594 C 120.628906 117.605469 121.121094 118.566406 121.53125 119.570312 C 121.945312 120.574219 122.269531 121.605469 122.503906 122.667969 L 141.515625 208.070312 C 141.5625 208.261719 141.617188 208.46875 141.679688 208.664062 C 141.988281 209.589844 142.367188 210.484375 142.816406 211.351562 C 143.265625 212.21875 143.777344 213.046875 144.355469 213.832031 C 144.933594 214.617188 145.570312 215.351562 146.261719 216.039062 C 146.957031 216.726562 147.699219 217.355469 148.492188 217.925781 C 149.28125 218.496094 150.113281 219 150.984375 219.441406 C 151.855469 219.882812 152.753906 220.253906 153.683594 220.550781 C 154.609375 220.851562 155.554688 221.078125 156.519531 221.230469 C 157.484375 221.382812 158.453125 221.457031 159.429688 221.457031 L 243.695312 221.457031 C 244.558594 221.457031 245.421875 221.398438 246.277344 221.277344 C 247.132812 221.160156 247.976562 220.980469 248.808594 220.746094 C 249.640625 220.507812 250.453125 220.214844 251.242188 219.867188 C 252.035156 219.519531 252.796875 219.117188 253.535156 218.664062 C 254.269531 218.207031 254.96875 217.703125 255.636719 217.152344 C 256.300781 216.601562 256.925781 216.003906 257.507812 215.367188 C 258.089844 214.730469 258.628906 214.054688 259.117188 213.339844 C 259.605469 212.628906 260.046875 211.882812 260.433594 211.109375 C 265.367188 201.234375 275.242188 170.222656 282.199219 156.300781 C 282.378906 155.945312 282.542969 155.585938 282.699219 155.21875 C 282.851562 154.851562 282.996094 154.484375 283.125 154.109375 C 283.257812 153.734375 283.375 153.355469 283.484375 152.972656 C 283.589844 152.59375 283.683594 152.207031 283.769531 151.820312 C 283.851562 151.429688 283.921875 151.039062 283.976562 150.648438 C 284.035156 150.253906 284.082031 149.863281 284.113281 149.464844 C 284.144531 149.070312 284.167969 148.675781 284.175781 148.277344 C 284.179688 147.882812 284.175781 147.484375 284.160156 147.089844 C 284.140625 146.691406 284.109375 146.296875 284.066406 145.902344 C 284.023438 145.507812 283.96875 145.117188 283.902344 144.726562 C 283.832031 144.332031 283.753906 143.945312 283.660156 143.558594 C 283.566406 143.175781 283.460938 142.792969 283.347656 142.414062 C 283.230469 142.03125 283.101562 141.65625 282.960938 141.289062 C 282.820312 140.917969 282.667969 140.550781 282.503906 140.1875 C 282.339844 139.828125 282.164062 139.472656 281.976562 139.121094 C 281.789062 138.773438 281.589844 138.429688 281.382812 138.089844 C 281.175781 137.753906 280.957031 137.421875 280.726562 137.097656 C 280.496094 136.777344 280.257812 136.460938 280.007812 136.152344 C 279.757812 135.84375 279.496094 135.542969 279.230469 135.25 C 278.960938 134.960938 278.683594 134.675781 278.394531 134.402344 C 278.109375 134.128906 277.8125 133.863281 277.511719 133.609375 C 277.207031 133.351562 276.894531 133.105469 276.574219 132.871094 C 276.257812 132.636719 275.929688 132.410156 275.597656 132.195312 C 275.261719 131.980469 274.921875 131.777344 274.578125 131.582031 C 274.230469 131.390625 273.878906 131.207031 273.519531 131.039062 C 273.160156 130.867188 272.796875 130.707031 272.429688 130.558594 C 272.0625 130.414062 271.691406 130.277344 271.3125 130.152344 C 270.9375 130.027344 270.554688 129.917969 270.171875 129.816406 C 269.789062 129.71875 269.402344 129.628906 269.011719 129.554688 C 268.621094 129.480469 268.230469 129.417969 267.835938 129.367188 C 267.441406 129.316406 267.046875 129.277344 266.652344 129.253906 C 266.257812 129.226562 265.859375 129.214844 265.464844 129.214844 Z M 265.464844 129.214844 " fill-opacity="1" fill-rule="evenodd"/></g><path fill="#ffffff" d="M 166.019531 228.570312 C 165.207031 228.570312 164.398438 228.609375 163.589844 228.6875 C 162.785156 228.765625 161.980469 228.886719 161.1875 229.042969 C 160.390625 229.203125 159.605469 229.398438 158.828125 229.636719 C 158.050781 229.871094 157.289062 230.144531 156.539062 230.453125 C 155.789062 230.765625 155.054688 231.113281 154.339844 231.496094 C 153.625 231.878906 152.929688 232.292969 152.253906 232.746094 C 151.578125 233.195312 150.929688 233.679688 150.300781 234.191406 C 149.675781 234.707031 149.074219 235.253906 148.5 235.824219 C 147.925781 236.398438 147.382812 237 146.867188 237.628906 C 146.351562 238.253906 145.871094 238.90625 145.417969 239.582031 C 144.96875 240.253906 144.550781 240.949219 144.167969 241.667969 C 143.785156 242.382812 143.441406 243.113281 143.128906 243.863281 C 142.820312 244.613281 142.546875 245.378906 142.308594 246.152344 C 142.074219 246.929688 141.878906 247.71875 141.71875 248.511719 C 141.5625 249.308594 141.441406 250.109375 141.363281 250.917969 C 141.285156 251.726562 141.242188 252.535156 141.242188 253.347656 C 141.242188 254.160156 141.285156 254.96875 141.363281 255.773438 C 141.441406 256.582031 141.5625 257.382812 141.71875 258.179688 C 141.878906 258.976562 142.074219 259.761719 142.3125 260.539062 C 142.546875 261.316406 142.820312 262.078125 143.132812 262.828125 C 143.441406 263.578125 143.789062 264.3125 144.171875 265.027344 C 144.554688 265.742188 144.96875 266.4375 145.421875 267.113281 C 145.871094 267.785156 146.355469 268.4375 146.871094 269.066406 C 147.386719 269.691406 147.929688 270.292969 148.503906 270.867188 C 149.078125 271.441406 149.675781 271.984375 150.304688 272.5 C 150.933594 273.011719 151.582031 273.496094 152.257812 273.945312 C 152.933594 274.398438 153.628906 274.8125 154.34375 275.195312 C 155.058594 275.578125 155.792969 275.925781 156.542969 276.234375 C 157.292969 276.546875 158.054688 276.820312 158.832031 277.054688 C 159.609375 277.289062 160.394531 277.488281 161.191406 277.644531 C 161.988281 277.804688 162.789062 277.921875 163.597656 278 C 164.402344 278.082031 165.214844 278.121094 166.023438 278.121094 C 166.835938 278.121094 167.644531 278.082031 168.453125 278 C 169.261719 277.921875 170.0625 277.800781 170.859375 277.644531 C 171.652344 277.484375 172.441406 277.289062 173.214844 277.050781 C 173.992188 276.816406 174.757812 276.542969 175.507812 276.234375 C 176.253906 275.921875 176.988281 275.574219 177.703125 275.191406 C 178.417969 274.808594 179.113281 274.394531 179.789062 273.941406 C 180.464844 273.492188 181.113281 273.007812 181.742188 272.492188 C 182.367188 271.976562 182.96875 271.433594 183.542969 270.859375 C 184.117188 270.285156 184.660156 269.683594 185.175781 269.058594 C 185.691406 268.429688 186.171875 267.777344 186.625 267.105469 C 187.074219 266.429688 187.492188 265.734375 187.875 265.019531 C 188.253906 264.300781 188.601562 263.570312 188.914062 262.820312 C 189.222656 262.070312 189.496094 261.308594 189.730469 260.53125 C 189.964844 259.753906 190.164062 258.96875 190.320312 258.171875 C 190.480469 257.375 190.597656 256.574219 190.675781 255.765625 C 190.757812 254.957031 190.796875 254.148438 190.796875 253.335938 C 190.796875 252.527344 190.753906 251.71875 190.675781 250.910156 C 190.59375 250.101562 190.476562 249.300781 190.316406 248.507812 C 190.15625 247.710938 189.960938 246.925781 189.722656 246.148438 C 189.488281 245.371094 189.214844 244.609375 188.902344 243.859375 C 188.59375 243.109375 188.246094 242.378906 187.863281 241.664062 C 187.480469 240.949219 187.066406 240.253906 186.613281 239.578125 C 186.164062 238.90625 185.679688 238.253906 185.164062 237.628906 C 184.652344 237 184.105469 236.398438 183.53125 235.828125 C 182.957031 235.253906 182.359375 234.710938 181.730469 234.195312 C 181.105469 233.679688 180.453125 233.199219 179.777344 232.746094 C 179.105469 232.296875 178.410156 231.878906 177.695312 231.496094 C 176.980469 231.113281 176.246094 230.769531 175.496094 230.457031 C 174.75 230.148438 173.984375 229.875 173.210938 229.636719 C 172.433594 229.402344 171.648438 229.207031 170.851562 229.046875 C 170.054688 228.886719 169.253906 228.769531 168.449219 228.6875 C 167.640625 228.609375 166.832031 228.570312 166.019531 228.570312 Z M 166.019531 265.992188 C 165.191406 265.992188 164.367188 265.910156 163.550781 265.75 C 162.738281 265.585938 161.949219 265.347656 161.179688 265.03125 C 160.414062 264.710938 159.683594 264.324219 158.992188 263.859375 C 158.304688 263.398438 157.664062 262.875 157.078125 262.289062 C 156.488281 261.703125 155.964844 261.0625 155.503906 260.371094 C 155.042969 259.683594 154.652344 258.953125 154.335938 258.1875 C 154.019531 257.417969 153.777344 256.628906 153.617188 255.8125 C 153.453125 255 153.371094 254.175781 153.371094 253.347656 C 153.371094 252.515625 153.453125 251.695312 153.613281 250.878906 C 153.777344 250.066406 154.015625 249.273438 154.332031 248.507812 C 154.652344 247.738281 155.039062 247.011719 155.5 246.320312 C 155.964844 245.628906 156.488281 244.992188 157.074219 244.402344 C 157.660156 243.816406 158.300781 243.292969 158.988281 242.832031 C 159.679688 242.367188 160.410156 241.980469 161.175781 241.660156 C 161.941406 241.34375 162.734375 241.101562 163.546875 240.941406 C 164.363281 240.777344 165.183594 240.695312 166.015625 240.695312 C 166.84375 240.695312 167.667969 240.777344 168.484375 240.9375 C 169.296875 241.101562 170.089844 241.339844 170.855469 241.65625 C 171.621094 241.976562 172.351562 242.363281 173.042969 242.824219 C 173.734375 243.285156 174.371094 243.808594 174.960938 244.398438 C 175.546875 244.984375 176.070312 245.621094 176.53125 246.3125 C 176.996094 247.003906 177.382812 247.730469 177.703125 248.5 C 178.019531 249.265625 178.261719 250.054688 178.421875 250.871094 C 178.585938 251.683594 178.667969 252.507812 178.667969 253.335938 C 178.667969 254.167969 178.585938 254.992188 178.421875 255.804688 C 178.261719 256.621094 178.019531 257.410156 177.703125 258.175781 C 177.386719 258.945312 176.996094 259.671875 176.535156 260.363281 C 176.074219 261.054688 175.546875 261.695312 174.960938 262.28125 C 174.375 262.867188 173.734375 263.394531 173.046875 263.855469 C 172.355469 264.316406 171.625 264.707031 170.859375 265.023438 C 170.09375 265.34375 169.300781 265.585938 168.488281 265.746094 C 167.671875 265.910156 166.851562 265.992188 166.019531 265.992188 Z M 166.019531 265.992188 " fill-opacity="1" fill-rule="evenodd"/><path fill="#ffffff" d="M 235.074219 228.570312 C 234.261719 228.570312 233.453125 228.609375 232.644531 228.6875 C 231.835938 228.765625 231.035156 228.886719 230.238281 229.042969 C 229.445312 229.203125 228.65625 229.398438 227.882812 229.636719 C 227.105469 229.871094 226.339844 230.144531 225.589844 230.453125 C 224.84375 230.765625 224.109375 231.113281 223.394531 231.496094 C 222.679688 231.878906 221.984375 232.292969 221.308594 232.746094 C 220.632812 233.195312 219.984375 233.679688 219.355469 234.191406 C 218.726562 234.707031 218.128906 235.253906 217.554688 235.824219 C 216.980469 236.398438 216.4375 237 215.921875 237.628906 C 215.40625 238.253906 214.921875 238.90625 214.472656 239.582031 C 214.023438 240.253906 213.605469 240.949219 213.222656 241.667969 C 212.839844 242.382812 212.492188 243.113281 212.183594 243.863281 C 211.871094 244.613281 211.597656 245.378906 211.363281 246.152344 C 211.128906 246.929688 210.933594 247.71875 210.773438 248.511719 C 210.613281 249.308594 210.496094 250.109375 210.417969 250.917969 C 210.335938 251.726562 210.296875 252.535156 210.296875 253.347656 C 210.296875 254.160156 210.335938 254.96875 210.417969 255.773438 C 210.496094 256.582031 210.617188 257.382812 210.773438 258.179688 C 210.933594 258.976562 211.128906 259.761719 211.367188 260.539062 C 211.601562 261.316406 211.875 262.078125 212.183594 262.828125 C 212.496094 263.578125 212.84375 264.3125 213.226562 265.027344 C 213.605469 265.742188 214.023438 266.4375 214.476562 267.113281 C 214.925781 267.785156 215.410156 268.4375 215.921875 269.066406 C 216.4375 269.691406 216.984375 270.292969 217.558594 270.867188 C 218.128906 271.441406 218.730469 271.984375 219.359375 272.5 C 219.984375 273.011719 220.636719 273.496094 221.3125 273.945312 C 221.988281 274.398438 222.683594 274.8125 223.398438 275.195312 C 224.113281 275.578125 224.847656 275.925781 225.597656 276.234375 C 226.347656 276.546875 227.109375 276.820312 227.886719 277.054688 C 228.664062 277.289062 229.449219 277.488281 230.246094 277.644531 C 231.039062 277.804688 231.84375 277.921875 232.648438 278 C 233.457031 278.082031 234.265625 278.121094 235.078125 278.121094 C 235.890625 278.121094 236.699219 278.082031 237.507812 278 C 238.3125 277.921875 239.117188 277.800781 239.910156 277.644531 C 240.707031 277.484375 241.492188 277.289062 242.269531 277.050781 C 243.046875 276.816406 243.808594 276.542969 244.558594 276.234375 C 245.308594 275.921875 246.042969 275.574219 246.757812 275.191406 C 247.472656 274.808594 248.167969 274.394531 248.84375 273.941406 C 249.519531 273.492188 250.167969 273.007812 250.796875 272.492188 C 251.421875 271.976562 252.023438 271.433594 252.597656 270.859375 C 253.171875 270.285156 253.714844 269.683594 254.230469 269.058594 C 254.742188 268.429688 255.226562 267.777344 255.675781 267.105469 C 256.128906 266.429688 256.542969 265.734375 256.925781 265.019531 C 257.308594 264.300781 257.65625 263.570312 257.964844 262.820312 C 258.277344 262.070312 258.550781 261.308594 258.785156 260.53125 C 259.019531 259.753906 259.214844 258.96875 259.375 258.171875 C 259.53125 257.375 259.652344 256.574219 259.730469 255.765625 C 259.808594 254.957031 259.851562 254.148438 259.847656 253.335938 C 259.847656 252.527344 259.808594 251.71875 259.730469 250.910156 C 259.648438 250.101562 259.53125 249.300781 259.371094 248.503906 C 259.210938 247.710938 259.015625 246.925781 258.78125 246.148438 C 258.542969 245.371094 258.269531 244.609375 257.960938 243.859375 C 257.648438 243.109375 257.300781 242.378906 256.917969 241.664062 C 256.539062 240.945312 256.121094 240.253906 255.667969 239.578125 C 255.21875 238.902344 254.734375 238.253906 254.222656 237.625 C 253.707031 237 253.160156 236.398438 252.589844 235.824219 C 252.015625 235.25 251.414062 234.707031 250.789062 234.191406 C 250.160156 233.679688 249.507812 233.195312 248.835938 232.746094 C 248.160156 232.292969 247.464844 231.878906 246.75 231.496094 C 246.035156 231.113281 245.300781 230.765625 244.550781 230.457031 C 243.804688 230.144531 243.039062 229.871094 242.265625 229.636719 C 241.488281 229.402344 240.703125 229.203125 239.90625 229.046875 C 239.109375 228.886719 238.308594 228.769531 237.5 228.6875 C 236.695312 228.609375 235.886719 228.570312 235.074219 228.570312 Z M 235.074219 265.992188 C 234.242188 265.992188 233.421875 265.910156 232.605469 265.75 C 231.792969 265.585938 231 265.347656 230.234375 265.03125 C 229.46875 264.710938 228.738281 264.324219 228.046875 263.859375 C 227.355469 263.398438 226.71875 262.875 226.132812 262.289062 C 225.542969 261.703125 225.019531 261.0625 224.558594 260.371094 C 224.097656 259.683594 223.707031 258.953125 223.390625 258.1875 C 223.070312 257.417969 222.832031 256.628906 222.667969 255.8125 C 222.507812 255 222.425781 254.175781 222.425781 253.347656 C 222.425781 252.515625 222.507812 251.695312 222.667969 250.878906 C 222.832031 250.066406 223.070312 249.273438 223.386719 248.507812 C 223.703125 247.738281 224.09375 247.011719 224.554688 246.320312 C 225.015625 245.628906 225.539062 244.992188 226.128906 244.402344 C 226.714844 243.816406 227.351562 243.292969 228.042969 242.832031 C 228.734375 242.367188 229.460938 241.980469 230.230469 241.660156 C 230.996094 241.34375 231.789062 241.101562 232.601562 240.941406 C 233.417969 240.777344 234.238281 240.695312 235.070312 240.695312 C 235.898438 240.695312 236.722656 240.777344 237.535156 240.9375 C 238.351562 241.101562 239.140625 241.339844 239.910156 241.65625 C 240.675781 241.976562 241.40625 242.363281 242.097656 242.824219 C 242.785156 243.285156 243.425781 243.808594 244.011719 244.398438 C 244.601562 244.984375 245.125 245.621094 245.585938 246.3125 C 246.046875 247.003906 246.4375 247.730469 246.757812 248.5 C 247.074219 249.265625 247.316406 250.054688 247.476562 250.871094 C 247.640625 251.683594 247.722656 252.507812 247.722656 253.335938 C 247.722656 254.167969 247.640625 254.992188 247.476562 255.804688 C 247.316406 256.621094 247.074219 257.410156 246.757812 258.175781 C 246.4375 258.945312 246.050781 259.671875 245.589844 260.363281 C 245.125 261.054688 244.601562 261.695312 244.015625 262.28125 C 243.429688 262.867188 242.789062 263.394531 242.097656 263.855469 C 241.410156 264.316406 240.679688 264.707031 239.914062 265.023438 C 239.144531 265.34375 238.355469 265.585938 237.542969 265.746094 C 236.726562 265.910156 235.902344 265.992188 235.074219 265.992188 Z M 235.074219 265.992188 " fill-opacity="1" fill-rule="evenodd"/></svg>