<svg xmlns="http://www.w3.org/2000/svg" xmlns:xlink="http://www.w3.org/1999/xlink" width="500" zoomAndPan="magnify" viewBox="0 0 375 374.999991" height="500" preserveAspectRatio="xMidYMid meet" version="1.0"><defs><clipPath id="8605867249"><path d="M 4.066406 4.066406 L 370.816406 4.066406 L 370.816406 370.816406 L 4.066406 370.816406 Z M 4.066406 4.066406 " clip-rule="nonzero"/></clipPath><clipPath id="7800ea56a5"><path d="M 187.5 4.066406 C 86.191406 4.066406 4.066406 86.191406 4.066406 187.5 C 4.066406 288.808594 86.191406 370.933594 187.5 370.933594 C 288.808594 370.933594 370.933594 288.808594 370.933594 187.5 C 370.933594 86.191406 288.808594 4.066406 187.5 4.066406 Z M 187.5 4.066406 " clip-rule="nonzero"/></clipPath><clipPath id="6441afcd94"><path d="M 102 92 L 281 92 L 281 290.777344 L 102 290.777344 Z M 102 92 " clip-rule="nonzero"/></clipPath></defs><g clip-path="url(#8605867249)"><g clip-path="url(#7800ea56a5)"><path stroke-linecap="butt" transform="matrix(0.75, 0, 0, 0.75, 4.065693, 4.065689)" fill="none" stroke-linejoin="miter" d="M 244.579076 0.000956636 C 109.500951 0.000956636 0.000950636 109.500957 0.000950636 244.579082 C 0.000950636 379.657207 109.500951 489.157207 244.579076 489.157207 C 379.657201 489.157207 489.157201 379.657207 489.157201 244.579082 C 489.157201 109.500957 379.657201 0.000956636 244.579076 0.000956636 Z M 244.579076 0.000956636 " stroke="#ffffff" stroke-width="30" stroke-opacity="1" stroke-miterlimit="4"/></g></g><g clip-path="url(#6441afcd94)"><path fill="#ffffff" d="M 279.144531 278.332031 L 236.035156 221.328125 C 237.136719 220.132812 238.199219 218.898438 239.222656 217.632812 C 240.246094 216.371094 241.230469 215.074219 242.171875 213.746094 C 243.113281 212.417969 244.011719 211.0625 244.867188 209.675781 C 245.722656 208.292969 246.53125 206.882812 247.296875 205.445312 C 248.0625 204.011719 248.78125 202.550781 249.457031 201.070312 C 250.128906 199.585938 250.753906 198.085938 251.332031 196.566406 C 251.910156 195.042969 252.4375 193.503906 252.917969 191.949219 C 253.398438 190.394531 253.828125 188.828125 254.210938 187.246094 C 254.589844 185.660156 254.921875 184.070312 255.199219 182.464844 C 255.480469 180.863281 255.710938 179.253906 255.886719 177.632812 C 256.0625 176.015625 256.191406 174.394531 256.265625 172.769531 C 256.339844 171.144531 256.363281 169.515625 256.332031 167.890625 C 256.304688 166.261719 256.226562 164.636719 256.09375 163.015625 C 255.960938 161.394531 255.777344 159.777344 255.542969 158.167969 C 255.308594 156.554688 255.023438 154.953125 254.6875 153.363281 C 254.351562 151.769531 253.964844 150.191406 253.53125 148.621094 C 253.09375 147.054688 252.609375 145.5 252.074219 143.964844 C 251.539062 142.425781 250.957031 140.910156 250.324219 139.410156 C 249.695312 137.910156 249.015625 136.429688 248.289062 134.972656 C 247.566406 133.515625 246.796875 132.082031 245.980469 130.675781 C 245.164062 129.265625 244.304688 127.886719 243.398438 126.53125 C 242.496094 125.179688 241.550781 123.855469 240.5625 122.5625 C 239.578125 121.269531 238.550781 120.007812 237.480469 118.777344 C 236.414062 117.550781 235.308594 116.355469 234.164062 115.199219 C 233.023438 114.039062 231.84375 112.917969 230.628906 111.835938 C 229.414062 110.75 228.167969 109.707031 226.886719 108.703125 C 225.605469 107.699219 224.292969 106.738281 222.953125 105.816406 C 221.613281 104.894531 220.242188 104.015625 218.84375 103.183594 C 217.445312 102.347656 216.023438 101.558594 214.578125 100.816406 C 213.128906 100.070312 211.660156 99.375 210.167969 98.722656 C 208.675781 98.074219 207.164062 97.46875 205.636719 96.914062 C 204.105469 96.359375 202.558594 95.855469 200.996094 95.398438 C 199.4375 94.941406 197.859375 94.535156 196.273438 94.175781 C 194.683594 93.820312 193.085938 93.515625 191.480469 93.257812 C 189.871094 93.003906 188.257812 92.800781 186.640625 92.648438 C 185.019531 92.492188 183.394531 92.390625 181.769531 92.34375 C 180.140625 92.292969 178.515625 92.292969 176.886719 92.347656 C 175.261719 92.398438 173.640625 92.503906 172.019531 92.660156 C 170.398438 92.816406 168.785156 93.023438 167.179688 93.285156 C 165.570312 93.542969 163.976562 93.851562 162.386719 94.210938 C 160.800781 94.570312 159.226562 94.980469 157.664062 95.441406 C 156.105469 95.902344 154.558594 96.410156 153.03125 96.96875 C 151.5 97.527344 149.992188 98.132812 148.5 98.785156 C 147.011719 99.4375 145.542969 100.140625 144.097656 100.886719 C 142.652344 101.632812 141.230469 102.425781 139.835938 103.261719 C 138.4375 104.097656 137.070312 104.980469 135.730469 105.902344 C 134.390625 106.828125 133.082031 107.792969 131.804688 108.800781 C 130.523438 109.808594 129.28125 110.851562 128.066406 111.9375 C 126.855469 113.023438 125.679688 114.148438 124.539062 115.308594 C 123.398438 116.46875 122.292969 117.664062 121.230469 118.894531 C 120.164062 120.125 119.140625 121.390625 118.15625 122.683594 C 117.167969 123.980469 116.226562 125.304688 115.324219 126.660156 C 114.425781 128.015625 113.566406 129.398438 112.753906 130.808594 C 111.941406 132.21875 111.175781 133.652344 110.453125 135.113281 C 109.730469 136.570312 109.054688 138.050781 108.425781 139.550781 C 107.800781 141.054688 107.21875 142.574219 106.6875 144.113281 C 106.15625 145.648438 105.675781 147.203125 105.242188 148.773438 C 104.808594 150.339844 104.425781 151.921875 104.09375 153.515625 C 103.757812 155.109375 103.476562 156.710938 103.246094 158.320312 C 103.015625 159.929688 102.835938 161.546875 102.707031 163.171875 C 102.578125 164.792969 102.5 166.417969 102.476562 168.046875 C 102.449219 169.671875 102.476562 171.296875 102.554688 172.925781 C 102.632812 174.550781 102.761719 176.171875 102.941406 177.789062 C 103.125 179.40625 103.355469 181.015625 103.636719 182.617188 C 103.921875 184.222656 104.253906 185.8125 104.636719 187.394531 C 105.023438 188.976562 105.457031 190.542969 105.9375 192.097656 C 106.421875 193.652344 106.953125 195.191406 107.535156 196.710938 C 108.117188 198.230469 108.746094 199.730469 109.421875 201.210938 C 110.097656 202.691406 110.820312 204.148438 111.589844 205.582031 C 112.359375 207.019531 113.171875 208.425781 114.027344 209.808594 C 114.886719 211.191406 115.789062 212.546875 116.730469 213.871094 C 117.675781 215.199219 118.660156 216.492188 119.6875 217.753906 C 120.714844 219.019531 121.777344 220.25 122.882812 221.445312 C 123.988281 222.640625 125.128906 223.800781 126.304688 224.921875 C 127.484375 226.046875 128.695312 227.128906 129.941406 228.175781 C 131.1875 229.222656 132.464844 230.226562 133.777344 231.195312 C 135.085938 232.160156 136.425781 233.082031 137.796875 233.960938 C 139.164062 234.839844 140.558594 235.675781 141.980469 236.46875 C 143.402344 237.261719 144.847656 238.007812 146.320312 238.707031 C 147.789062 239.40625 149.277344 240.058594 150.789062 240.664062 C 152.300781 241.269531 153.828125 241.828125 155.375 242.335938 C 156.921875 242.84375 158.480469 243.300781 160.054688 243.710938 C 161.628906 244.121094 163.21875 244.480469 164.816406 244.789062 C 166.414062 245.097656 168.019531 245.355469 169.632812 245.5625 C 171.246094 245.769531 172.867188 245.921875 174.492188 246.027344 C 176.117188 246.132812 177.742188 246.183594 179.367188 246.183594 C 180.996094 246.183594 182.621094 246.132812 184.246094 246.03125 C 185.871094 245.929688 187.488281 245.777344 189.105469 245.570312 C 190.71875 245.367188 192.324219 245.109375 193.921875 244.800781 C 195.519531 244.496094 197.109375 244.136719 198.683594 243.730469 C 200.257812 243.324219 201.820312 242.863281 203.367188 242.359375 C 204.914062 241.851562 206.441406 241.296875 207.953125 240.691406 C 209.464844 240.089844 210.957031 239.4375 212.425781 238.738281 C 213.894531 238.039062 215.34375 237.296875 216.765625 236.507812 C 218.1875 235.714844 219.582031 234.882812 220.953125 234.003906 C 222.324219 233.125 223.664062 232.203125 224.976562 231.238281 L 267.34375 287.273438 C 267.636719 287.664062 267.96875 288.019531 268.332031 288.34375 C 268.695312 288.671875 269.089844 288.957031 269.511719 289.203125 C 269.933594 289.453125 270.375 289.65625 270.835938 289.816406 C 271.296875 289.976562 271.769531 290.09375 272.253906 290.160156 C 272.738281 290.226562 273.222656 290.246094 273.710938 290.21875 C 274.199219 290.191406 274.679688 290.117188 275.152344 289.992188 C 275.625 289.871094 276.082031 289.703125 276.523438 289.492188 C 276.964844 289.277344 277.378906 289.023438 277.769531 288.730469 C 278.160156 288.4375 278.515625 288.105469 278.839844 287.742188 C 279.167969 287.375 279.453125 286.984375 279.699219 286.5625 C 279.949219 286.140625 280.152344 285.699219 280.3125 285.238281 C 280.476562 284.777344 280.589844 284.304688 280.65625 283.820312 C 280.722656 283.335938 280.742188 282.847656 280.714844 282.363281 C 280.6875 281.875 280.613281 281.394531 280.488281 280.921875 C 280.367188 280.445312 280.199219 279.992188 279.988281 279.550781 C 279.773438 279.109375 279.519531 278.695312 279.226562 278.304688 Z M 114.9375 169.234375 C 114.9375 168.179688 114.960938 167.125 115.011719 166.070312 C 115.066406 165.015625 115.144531 163.964844 115.246094 162.914062 C 115.347656 161.863281 115.476562 160.816406 115.632812 159.773438 C 115.789062 158.726562 115.96875 157.6875 116.175781 156.652344 C 116.378906 155.617188 116.609375 154.589844 116.867188 153.5625 C 117.125 152.539062 117.40625 151.523438 117.710938 150.511719 C 118.015625 149.503906 118.347656 148.5 118.703125 147.507812 C 119.058594 146.515625 119.4375 145.53125 119.84375 144.554688 C 120.246094 143.578125 120.671875 142.613281 121.125 141.660156 C 121.574219 140.707031 122.050781 139.761719 122.546875 138.832031 C 123.046875 137.902344 123.566406 136.984375 124.109375 136.078125 C 124.648438 135.171875 125.214844 134.28125 125.800781 133.402344 C 126.386719 132.527344 126.996094 131.664062 127.625 130.816406 C 128.253906 129.96875 128.902344 129.136719 129.570312 128.320312 C 130.238281 127.503906 130.929688 126.703125 131.636719 125.921875 C 132.347656 125.140625 133.074219 124.375 133.820312 123.628906 C 134.566406 122.882812 135.332031 122.15625 136.113281 121.445312 C 136.894531 120.738281 137.695312 120.046875 138.507812 119.378906 C 139.324219 118.710938 140.15625 118.058594 141.003906 117.429688 C 141.851562 116.800781 142.714844 116.195312 143.59375 115.609375 C 144.46875 115.023438 145.363281 114.457031 146.265625 113.914062 C 147.171875 113.371094 148.089844 112.851562 149.019531 112.355469 C 149.953125 111.855469 150.894531 111.382812 151.847656 110.929688 C 152.804688 110.480469 153.765625 110.050781 154.742188 109.648438 C 155.71875 109.242188 156.703125 108.863281 157.695312 108.507812 C 158.691406 108.152344 159.691406 107.820312 160.703125 107.515625 C 161.710938 107.207031 162.726562 106.925781 163.753906 106.671875 C 164.777344 106.414062 165.804688 106.183594 166.839844 105.976562 C 167.875 105.769531 168.914062 105.589844 169.960938 105.433594 C 171.003906 105.28125 172.050781 105.152344 173.101562 105.046875 C 174.152344 104.945312 175.203125 104.867188 176.257812 104.816406 C 177.3125 104.761719 178.367188 104.738281 179.421875 104.738281 C 180.476562 104.738281 181.53125 104.761719 182.585938 104.8125 C 183.640625 104.867188 184.695312 104.945312 185.742188 105.046875 C 186.792969 105.152344 187.839844 105.28125 188.886719 105.433594 C 189.929688 105.589844 190.96875 105.769531 192.003906 105.976562 C 193.039062 106.179688 194.070312 106.414062 195.09375 106.667969 C 196.117188 106.925781 197.132812 107.207031 198.144531 107.511719 C 199.152344 107.820312 200.15625 108.152344 201.148438 108.507812 C 202.144531 108.863281 203.128906 109.242188 204.101562 109.644531 C 205.078125 110.050781 206.042969 110.476562 206.996094 110.929688 C 207.953125 111.378906 208.894531 111.855469 209.824219 112.351562 C 210.753906 112.847656 211.671875 113.367188 212.578125 113.910156 C 213.484375 114.453125 214.375 115.019531 215.253906 115.605469 C 216.132812 116.191406 216.992188 116.796875 217.839844 117.425781 C 218.6875 118.054688 219.519531 118.707031 220.335938 119.375 C 221.152344 120.042969 221.953125 120.734375 222.734375 121.441406 C 223.515625 122.152344 224.28125 122.878906 225.027344 123.625 C 225.773438 124.371094 226.5 125.136719 227.210938 125.917969 C 227.917969 126.699219 228.605469 127.5 229.277344 128.316406 C 229.945312 129.128906 230.59375 129.960938 231.222656 130.808594 C 231.851562 131.65625 232.460938 132.519531 233.046875 133.398438 C 233.632812 134.277344 234.199219 135.167969 234.742188 136.074219 C 235.28125 136.976562 235.804688 137.894531 236.300781 138.828125 C 236.796875 139.757812 237.273438 140.699219 237.722656 141.65625 C 238.175781 142.609375 238.601562 143.574219 239.007812 144.546875 C 239.410156 145.523438 239.789062 146.507812 240.144531 147.5 C 240.5 148.496094 240.832031 149.496094 241.140625 150.507812 C 241.445312 151.519531 241.726562 152.535156 241.984375 153.558594 C 242.238281 154.582031 242.46875 155.613281 242.675781 156.648438 C 242.882812 157.683594 243.0625 158.722656 243.21875 159.765625 C 243.371094 160.808594 243.5 161.855469 243.605469 162.90625 C 243.707031 163.957031 243.785156 165.011719 243.835938 166.066406 C 243.890625 167.117188 243.914062 168.171875 243.914062 169.230469 C 243.914062 170.285156 243.890625 171.339844 243.835938 172.394531 C 243.785156 173.449219 243.707031 174.5 243.605469 175.550781 C 243.5 176.601562 243.371094 177.648438 243.214844 178.691406 C 243.0625 179.734375 242.882812 180.777344 242.675781 181.8125 C 242.46875 182.847656 242.238281 183.875 241.980469 184.898438 C 241.726562 185.921875 241.445312 186.941406 241.136719 187.949219 C 240.832031 188.960938 240.5 189.960938 240.144531 190.957031 C 239.789062 191.949219 239.410156 192.933594 239.003906 193.910156 C 238.601562 194.882812 238.171875 195.847656 237.722656 196.804688 C 237.269531 197.757812 236.796875 198.699219 236.296875 199.628906 C 235.800781 200.5625 235.28125 201.480469 234.738281 202.382812 C 234.195312 203.289062 233.628906 204.179688 233.042969 205.058594 C 232.457031 205.9375 231.847656 206.800781 231.222656 207.648438 C 230.59375 208.496094 229.941406 209.328125 229.273438 210.140625 C 228.601562 210.957031 227.914062 211.757812 227.207031 212.539062 C 226.496094 213.320312 225.769531 214.085938 225.023438 214.832031 C 224.277344 215.578125 223.511719 216.304688 222.730469 217.015625 C 221.949219 217.722656 221.148438 218.410156 220.332031 219.082031 C 219.515625 219.75 218.683594 220.398438 217.835938 221.027344 C 216.988281 221.65625 216.125 222.265625 215.25 222.851562 C 214.371094 223.4375 213.480469 224 212.574219 224.542969 C 211.667969 225.085938 210.75 225.605469 209.820312 226.105469 C 208.886719 226.601562 207.945312 227.074219 206.992188 227.527344 C 206.039062 227.976562 205.074219 228.40625 204.097656 228.808594 C 203.121094 229.214844 202.136719 229.59375 201.144531 229.949219 C 200.148438 230.304688 199.148438 230.632812 198.136719 230.941406 C 197.128906 231.246094 196.109375 231.527344 195.085938 231.785156 C 194.0625 232.042969 193.035156 232.273438 192 232.476562 C 190.964844 232.683594 189.925781 232.863281 188.878906 233.019531 C 187.835938 233.171875 186.789062 233.300781 185.738281 233.40625 C 184.6875 233.507812 183.636719 233.585938 182.582031 233.636719 C 181.527344 233.691406 180.472656 233.714844 179.417969 233.714844 C 178.363281 233.714844 177.308594 233.6875 176.253906 233.636719 C 175.199219 233.585938 174.148438 233.507812 173.097656 233.402344 C 172.046875 233.300781 171 233.171875 169.957031 233.015625 C 168.910156 232.863281 167.871094 232.679688 166.835938 232.476562 C 165.804688 232.269531 164.773438 232.039062 163.75 231.78125 C 162.726562 231.523438 161.710938 231.242188 160.699219 230.9375 C 159.691406 230.628906 158.6875 230.300781 157.695312 229.945312 C 156.703125 229.589844 155.71875 229.207031 154.742188 228.804688 C 153.769531 228.402344 152.804688 227.972656 151.847656 227.523438 C 150.894531 227.070312 149.953125 226.597656 149.023438 226.097656 C 148.09375 225.601562 147.175781 225.082031 146.269531 224.539062 C 145.363281 223.996094 144.472656 223.433594 143.59375 222.847656 C 142.71875 222.257812 141.855469 221.652344 141.007812 221.023438 C 140.160156 220.394531 139.328125 219.746094 138.511719 219.078125 C 137.699219 218.40625 136.898438 217.71875 136.117188 217.007812 C 135.335938 216.300781 134.570312 215.574219 133.824219 214.828125 C 133.078125 214.082031 132.351562 213.316406 131.644531 212.535156 C 130.933594 211.753906 130.246094 210.953125 129.574219 210.136719 C 128.90625 209.324219 128.257812 208.492188 127.628906 207.644531 C 127 206.796875 126.390625 205.933594 125.804688 205.054688 C 125.21875 204.179688 124.65625 203.289062 124.113281 202.382812 C 123.570312 201.476562 123.050781 200.558594 122.554688 199.628906 C 122.054688 198.699219 121.582031 197.757812 121.128906 196.800781 C 120.679688 195.847656 120.25 194.882812 119.847656 193.910156 C 119.441406 192.933594 119.0625 191.949219 118.707031 190.957031 C 118.351562 189.964844 118.019531 188.960938 117.714844 187.953125 C 117.410156 186.941406 117.128906 185.925781 116.871094 184.902344 C 116.613281 183.878906 116.382812 182.847656 116.175781 181.8125 C 115.972656 180.777344 115.789062 179.738281 115.636719 178.695312 C 115.480469 177.652344 115.351562 176.605469 115.246094 175.554688 C 115.144531 174.503906 115.066406 173.453125 115.015625 172.398438 C 114.960938 171.34375 114.9375 170.289062 114.9375 169.234375 Z M 114.9375 169.234375 " fill-opacity="1" fill-rule="nonzero"/></g></svg>