<svg xmlns="http://www.w3.org/2000/svg" xmlns:xlink="http://www.w3.org/1999/xlink" width="500" zoomAndPan="magnify" viewBox="0 0 375 374.999991" height="500" preserveAspectRatio="xMidYMid meet" version="1.0"><defs><clipPath id="dfa58b54d6"><path d="M 4.066406 4.066406 L 370.816406 4.066406 L 370.816406 370.816406 L 4.066406 370.816406 Z M 4.066406 4.066406 " clip-rule="nonzero"/></clipPath><clipPath id="ed970b98a0"><path d="M 187.5 4.066406 C 86.191406 4.066406 4.066406 86.191406 4.066406 187.5 C 4.066406 288.808594 86.191406 370.933594 187.5 370.933594 C 288.808594 370.933594 370.933594 288.808594 370.933594 187.5 C 370.933594 86.191406 288.808594 4.066406 187.5 4.066406 Z M 187.5 4.066406 " clip-rule="nonzero"/></clipPath><clipPath id="3dfe76ef3a"><path d="M 98.058594 184 L 277 184 L 277 281.121094 L 98.058594 281.121094 Z M 98.058594 184 " clip-rule="nonzero"/></clipPath><clipPath id="6358a9173a"><path d="M 138 93.621094 L 237 93.621094 L 237 192 L 138 192 Z M 138 93.621094 " clip-rule="nonzero"/></clipPath></defs><g clip-path="url(#dfa58b54d6)"><g clip-path="url(#ed970b98a0)"><path stroke-linecap="butt" transform="matrix(0.75, 0, 0, 0.75, 4.065693, 4.065689)" fill="none" stroke-linejoin="miter" d="M 244.579076 0.000956636 C 109.500951 0.000956636 0.000950636 109.500957 0.000950636 244.579082 C 0.000950636 379.657207 109.500951 489.157207 244.579076 489.157207 C 379.657201 489.157207 489.157201 379.657207 489.157201 244.579082 C 489.157201 109.500957 379.657201 0.000956636 244.579076 0.000956636 Z M 244.579076 0.000956636 " stroke="#ffffff" stroke-width="30" stroke-opacity="1" stroke-miterlimit="4"/></g></g><g clip-path="url(#3dfe76ef3a)"><path fill="#ffffff" d="M 247.976562 195.808594 L 232.78125 184.921875 L 227.585938 192.191406 L 242.785156 203.121094 C 258.558594 214.394531 267.945312 232.707031 267.945312 252.097656 L 267.945312 268.027344 C 267.945312 270.488281 265.945312 272.492188 263.484375 272.492188 L 111.507812 272.492188 C 109.046875 272.492188 107.042969 270.488281 107.042969 268.027344 L 107.042969 251.214844 C 107.042969 232.359375 116.046875 214.355469 131.128906 203.003906 L 146.636719 191.347656 L 141.25 184.191406 L 125.742188 195.847656 C 108.429688 208.8125 98.078125 229.515625 98.078125 251.175781 L 98.078125 267.988281 C 98.078125 275.375 104.082031 281.378906 111.507812 281.378906 L 263.484375 281.378906 C 270.871094 281.378906 276.910156 275.375 276.910156 267.949219 L 276.910156 252.023438 C 276.910156 229.785156 266.101562 208.777344 247.976562 195.808594 Z M 247.976562 195.808594 " fill-opacity="1" fill-rule="nonzero"/></g><g clip-path="url(#6358a9173a)"><path fill="#ffffff" d="M 187.496094 191.960938 C 214.621094 191.960938 236.667969 169.917969 236.667969 142.792969 C 236.667969 115.667969 214.621094 93.621094 187.496094 93.621094 C 160.371094 93.621094 138.324219 115.667969 138.324219 142.792969 C 138.324219 169.917969 160.371094 191.960938 187.496094 191.960938 Z M 187.496094 102.546875 C 209.65625 102.546875 227.742188 120.628906 227.742188 142.792969 C 227.742188 164.953125 209.65625 183.035156 187.496094 183.035156 C 165.335938 183.035156 147.25 164.992188 147.25 142.792969 C 147.25 120.589844 165.296875 102.546875 187.496094 102.546875 Z M 187.496094 102.546875 " fill-opacity="1" fill-rule="nonzero"/></g></svg>